<?xml version="1.0" standalone="no"?>
<!DOCTYPE svg PUBLIC "-//W3C//DTD SVG 20010904//EN"
 "http://www.w3.org/TR/2001/REC-SVG-20010904/DTD/svg10.dtd">
<svg version="1.0" xmlns="http://www.w3.org/2000/svg"
 width="512.000000pt" height="512.000000pt" viewBox="0 0 512.000000 512.000000"
 preserveAspectRatio="xMidYMid meet">
<metadata>
Created by potrace 1.11, written by Peter Selinger 2001-2013
</metadata>
<g transform="translate(0.000000,512.000000) scale(0.100000,-0.100000)"
fill="#000000" stroke="none">
<path d="M1845 4175 c-365 -57 -669 -210 -920 -460 -247 -248 -394 -530 -462
-890 -13 -66 -16 -220 -20 -902 l-4 -823 -220 0 -219 0 0 -85 0 -85 2560 0
2560 0 0 85 0 85 -219 0 -219 0 -5 813 c-4 770 -5 818 -25 923 -119 629 -571
1129 -1172 1295 -189 52 -182 52 -885 55 -529 2 -678 0 -750 -11z m443 -1352
c-3 -210 -4 -220 -29 -273 -14 -30 -46 -75 -71 -100 -92 -92 -182 -115 -428
-108 -173 5 -225 19 -301 79 -48 38 -100 116 -117 175 -8 26 -12 117 -12 243
l0 201 481 0 481 0 -4 -217z m1502 25 c0 -254 -15 -312 -103 -399 -91 -91
-183 -114 -427 -107 -131 4 -164 9 -215 28 -71 27 -148 100 -185 175 -24 48
-25 58 -28 273 l-3 222 480 0 481 0 0 -192z"/>
</g>
</svg>
