<?xml version="1.0" standalone="no"?>
<!DOCTYPE svg PUBLIC "-//W3C//DTD SVG 20010904//EN"
 "http://www.w3.org/TR/2001/REC-SVG-20010904/DTD/svg10.dtd">
<svg version="1.0" xmlns="http://www.w3.org/2000/svg"
 width="560.000000pt" height="560.000000pt" viewBox="0 0 560.000000 560.000000"
 preserveAspectRatio="xMidYMid meet">
<metadata>
Created by potrace 1.11, written by Peter Selinger 2001-2013
</metadata>
<g transform="translate(0.000000,560.000000) scale(0.100000,-0.100000)"
fill="#000000" stroke="none">
<path d="M1660 5513 c0 -5 -10 -10 -22 -10 -51 -3 -68 -8 -64 -18 2 -7 -6 -10
-24 -7 -15 2 -31 -1 -34 -7 -4 -6 -16 -11 -27 -11 -10 0 -19 -4 -19 -8 0 -5
-18 -15 -40 -22 -22 -7 -40 -16 -40 -20 0 -4 -12 -13 -27 -21 -16 -8 -40 -26
-55 -41 -14 -16 -31 -28 -37 -28 -6 0 -10 -4 -9 -9 2 -5 -14 -25 -34 -44 -21
-19 -35 -37 -31 -41 3 -3 2 -6 -4 -6 -5 0 -18 -18 -28 -40 -10 -23 -22 -37
-29 -33 -6 3 -8 3 -4 -2 4 -4 3 -14 -3 -22 -6 -7 -8 -13 -3 -13 5 0 3 -4 -3
-8 -7 -5 -14 -20 -15 -34 -1 -15 -5 -25 -9 -22 -6 3 -13 -19 -25 -71 -2 -10
-4 -18 -9 -40 -1 -5 -3 -12 -4 -15 -2 -3 -4 -25 -6 -49 -2 -24 -7 -47 -12 -50
-9 -7 -14 -40 -13 -84 0 -19 -3 -26 -11 -22 -8 5 -7 0 1 -15 8 -15 8 -20 1
-16 -10 7 -16 -26 -12 -61 1 -7 -2 -13 -6 -13 -8 0 -13 -28 -16 -77 0 -7 -5
-13 -11 -13 -6 0 -4 -5 4 -10 10 -6 11 -10 3 -10 -8 0 -13 -14 -13 -34 0 -19
-4 -37 -8 -40 -5 -3 -8 -19 -7 -36 1 -16 -2 -30 -6 -30 -5 0 -6 -6 -3 -14 3
-8 0 -17 -6 -21 -9 -6 -9 -10 1 -16 10 -6 11 -9 2 -9 -8 0 -13 -13 -13 -33 0
-18 -6 -39 -12 -46 -11 -11 -10 -12 2 -6 12 6 13 5 3 -6 -7 -7 -13 -25 -13
-40 0 -15 -5 -31 -10 -34 -8 -5 -8 -11 -1 -19 7 -9 7 -16 -1 -24 -6 -6 -11
-25 -10 -42 0 -16 -3 -30 -7 -30 -4 0 -8 -16 -9 -37 -2 -20 -6 -41 -10 -47 -3
-6 -8 -31 -10 -56 -2 -25 -8 -49 -13 -54 -5 -6 -9 -26 -9 -46 0 -20 -3 -40 -7
-43 -7 -8 -14 -46 -16 -89 0 -16 -4 -28 -9 -28 -4 0 -8 -17 -8 -38 0 -21 -3
-42 -8 -46 -8 -9 -9 -13 -11 -67 0 -22 -4 -38 -8 -36 -5 3 -9 -15 -11 -41 -1
-25 -6 -50 -10 -56 -5 -6 -9 -22 -10 -36 -3 -38 -7 -54 -16 -69 -7 -10 -5 -12
5 -6 11 6 12 5 2 -6 -7 -7 -13 -26 -13 -41 0 -15 -4 -28 -10 -28 -5 0 -10 -5
-10 -11 0 -5 6 -7 13 -3 10 6 10 4 0 -7 -7 -7 -13 -26 -13 -42 0 -19 -4 -26
-12 -21 -7 5 -8 3 -2 -7 12 -20 14 -39 3 -39 -5 0 -9 -18 -9 -41 0 -22 -4 -38
-8 -35 -4 2 -9 -16 -10 -41 -1 -25 -6 -51 -12 -58 -8 -9 -7 -15 2 -18 10 -4
10 -6 1 -6 -7 -1 -13 -13 -13 -28 0 -54 -1 -55 -224 -55 -202 -1 -207 -2 -230
-24 -23 -24 -35 -94 -16 -94 6 0 10 -9 10 -21 0 -11 4 -18 9 -14 5 3 12 1 16
-4 3 -6 13 -7 22 -4 12 5 14 3 8 -7 -6 -10 -4 -12 11 -6 31 12 55 16 49 7 -3
-5 2 -12 11 -15 8 -3 12 -2 9 4 -3 6 -3 10 2 11 4 0 16 2 26 4 10 2 14 -1 10
-8 -4 -7 0 -8 13 -3 31 12 55 16 49 7 -3 -5 6 -8 20 -7 14 0 25 5 25 9 0 5 6
5 12 0 18 -11 50 -15 44 -5 -3 5 5 7 17 6 12 -1 22 -3 22 -4 0 -1 10 -3 23 -6
13 -2 21 0 18 4 -3 5 5 7 17 6 12 -1 22 -3 22 -4 0 -1 10 -3 23 -6 13 -2 21 0
18 4 -3 5 5 7 17 6 12 -1 22 -3 22 -4 0 -1 10 -3 23 -6 13 -2 21 0 18 4 -6 10
25 9 42 -2 7 -4 22 -4 35 0 36 13 47 13 40 1 -4 -7 0 -8 13 -3 35 14 55 16 48
4 -5 -8 -1 -9 12 -4 35 14 55 16 48 4 -5 -8 -1 -9 12 -4 31 12 55 16 49 7 -3
-5 6 -8 20 -7 14 0 25 5 25 9 0 5 6 5 13 0 17 -11 49 -15 43 -5 -3 5 5 7 17 6
12 -1 22 -3 22 -4 0 -1 10 -3 23 -6 13 -2 21 0 18 4 -3 5 5 7 17 6 12 -1 22
-3 22 -4 0 -1 10 -3 23 -6 13 -2 21 0 18 4 -3 5 5 7 17 6 12 -1 22 -3 22 -4 0
-1 10 -3 23 -6 13 -2 21 0 18 4 -6 10 25 9 42 -2 7 -4 22 -4 35 0 36 13 47 13
40 1 -4 -7 0 -8 13 -3 35 14 55 16 48 4 -5 -8 -1 -9 12 -4 35 14 55 16 48 4
-5 -8 -1 -9 12 -4 31 12 55 16 49 7 -3 -5 6 -8 20 -7 14 0 25 5 25 9 0 5 6 5
13 0 17 -11 49 -15 43 -5 -3 5 5 7 17 6 12 -1 22 -3 22 -4 0 -1 10 -3 23 -6
13 -2 21 0 18 4 -3 5 5 7 17 6 12 -1 22 -3 22 -4 0 -1 10 -3 23 -6 13 -2 21 0
18 4 -3 5 5 7 17 6 12 -1 22 -3 22 -4 0 -1 10 -3 23 -6 13 -2 21 0 18 4 -6 10
25 9 42 -2 7 -4 22 -4 35 0 36 13 47 13 40 1 -4 -7 0 -8 13 -3 35 14 55 16 48
4 -5 -8 -1 -9 12 -4 35 14 55 16 48 4 -5 -8 -1 -9 12 -4 31 12 55 16 49 7 -3
-5 6 -8 20 -7 14 0 25 5 25 9 0 5 6 5 13 0 17 -11 49 -15 43 -5 -3 5 5 7 17 6
12 -1 22 -3 22 -4 0 -1 10 -3 23 -6 13 -2 21 0 18 4 -4 7 28 8 44 2 3 -1 10
-1 15 0 38 8 45 8 40 1 -2 -5 10 -7 28 -5 17 1 32 3 32 4 0 7 36 6 41 -1 3 -5
10 -7 15 -4 19 12 50 14 43 3 -5 -8 -1 -9 12 -4 32 13 55 15 49 5 -8 -12 2
-12 27 2 11 6 18 7 14 1 -3 -5 5 -9 19 -9 14 0 23 3 20 7 -2 3 6 5 18 4 12 -1
22 -3 22 -4 0 -1 10 -3 23 -6 13 -2 21 0 18 4 -6 10 25 9 42 -2 7 -4 22 -4 35
0 36 13 47 13 40 1 -4 -7 0 -8 13 -3 35 14 55 16 48 4 -5 -8 -1 -9 12 -4 35
14 55 16 48 4 -5 -8 -1 -9 12 -4 31 12 55 16 49 7 -3 -5 6 -8 20 -7 14 0 25 5
25 9 0 5 6 5 13 0 17 -11 49 -15 43 -5 -3 5 5 7 17 6 12 -1 22 -3 22 -4 0 -1
10 -3 23 -6 13 -2 21 0 18 4 -4 7 28 8 44 2 3 -1 10 -1 15 0 38 8 45 8 40 1
-2 -5 10 -7 28 -5 17 1 32 3 32 4 0 7 36 6 41 -1 3 -5 10 -7 15 -4 19 12 50
14 43 3 -5 -8 -1 -9 12 -4 32 13 55 15 49 5 -8 -12 2 -12 27 2 16 9 19 8 13
-1 -8 -13 -7 -13 63 4 15 3 20 1 16 -6 -5 -8 -1 -9 12 -4 35 14 55 16 48 4 -5
-8 -1 -9 12 -4 35 14 55 16 48 4 -5 -8 -1 -9 12 -4 31 12 55 16 49 7 -3 -5 6
-8 20 -7 14 0 25 4 25 9 0 4 5 7 11 7 5 0 7 -5 3 -11 -5 -8 1 -10 17 -6 13 3
34 8 47 11 15 3 20 1 16 -6 -5 -8 -1 -9 12 -4 35 14 55 16 48 4 -5 -8 -1 -9
12 -4 35 14 55 16 48 4 -5 -8 -1 -9 12 -4 31 12 55 16 49 7 -3 -5 6 -8 20 -7
14 0 25 4 25 9 0 4 5 7 11 7 5 0 7 -5 3 -12 -5 -8 -2 -9 12 -4 31 12 55 16 49
7 -2 -5 10 -7 28 -5 17 1 32 3 32 4 0 7 36 6 41 -1 3 -5 10 -7 15 -4 19 12 50
14 43 3 -5 -8 -1 -9 12 -4 32 13 55 15 49 5 -8 -12 2 -12 27 2 11 6 18 7 14 1
-3 -5 5 -9 19 -9 14 0 23 3 20 7 -2 3 6 5 18 4 12 -1 22 -3 22 -4 0 -1 10 -3
23 -6 13 -2 21 0 18 4 -6 10 25 9 42 -2 7 -4 22 -4 35 0 36 13 47 13 40 1 -4
-7 0 -8 13 -3 35 14 55 16 48 4 -5 -8 -1 -9 12 -4 35 14 55 16 48 4 -5 -8 -1
-9 12 -4 31 12 55 16 49 7 -3 -5 6 -8 20 -7 14 0 25 5 25 9 0 5 6 5 13 0 17
-11 49 -15 43 -5 -3 5 5 7 17 6 12 -1 22 -3 22 -4 0 -1 10 -3 23 -6 15 -3 21
0 16 7 -5 8 -2 9 12 1 18 -10 71 8 85 29 11 18 10 99 -1 99 -6 0 -8 5 -5 10 3
6 -3 10 -14 10 -11 0 -23 4 -26 10 -3 5 -86 9 -198 10 -106 0 -199 1 -207 2
-10 1 -16 15 -18 42 -1 22 -8 47 -15 55 -10 12 -9 13 1 7 11 -7 12 -4 3 12 -6
11 -11 37 -11 56 0 20 -5 36 -11 36 -6 0 -9 6 -6 14 3 8 2 28 -3 44 -5 20 -4
34 3 42 9 8 8 10 -4 5 -13 -5 -16 2 -17 37 -1 24 -7 45 -12 46 -7 3 -7 9 1 18
7 8 7 14 1 14 -5 0 -10 10 -10 23 -2 31 -6 50 -16 66 -7 11 -6 12 5 6 11 -7
11 -5 -1 10 -8 10 -14 20 -12 22 1 1 2 12 2 24 0 13 -4 18 -12 13 -10 -6 -10
-5 -1 7 8 9 9 19 3 25 -5 5 -10 28 -13 51 -2 24 -6 46 -10 50 -4 3 -7 18 -7
33 0 14 -6 32 -12 39 -11 11 -10 12 0 6 11 -6 12 -3 3 13 -6 11 -11 32 -11 46
0 14 -6 26 -12 26 -9 0 -8 4 2 10 8 5 10 10 4 10 -7 0 -12 15 -12 34 0 19 -4
41 -8 48 -5 7 -9 25 -9 40 0 15 -4 30 -7 33 -4 4 -4 13 -1 21 3 8 0 14 -6 14
-6 0 -11 5 -11 11 0 5 6 7 13 3 9 -6 9 -5 0 7 -7 9 -13 30 -15 47 -1 18 -5 32
-8 32 -3 0 -6 10 -7 23 -1 54 -4 68 -12 63 -11 -7 -9 13 3 33 6 10 5 12 -2 7
-11 -7 -16 17 -15 62 1 6 -3 12 -7 12 -4 0 -8 16 -8 35 0 20 -6 43 -13 52 -10
12 -10 15 -1 9 6 -4 12 -2 12 3 0 6 -4 11 -8 11 -4 0 -9 17 -10 38 -2 20 -7
39 -12 40 -6 2 -10 8 -10 13 0 6 6 7 13 3 10 -6 10 -4 0 7 -7 7 -13 25 -13 39
0 14 -6 32 -12 39 -7 8 -8 11 -2 8 6 -3 11 0 11 8 0 8 -4 12 -9 9 -4 -3 -8 13
-8 36 0 23 -4 39 -9 36 -5 -3 -9 0 -8 7 1 46 -4 97 -10 94 -5 -3 -9 13 -11 36
-1 22 -8 47 -14 54 -8 9 -7 13 2 13 10 0 10 3 0 15 -7 8 -10 26 -8 40 4 17 0
29 -11 35 -13 8 -14 9 -1 10 12 0 12 2 2 9 -8 4 -13 11 -13 15 5 37 -1 66 -11
60 -10 -6 -10 -5 -1 7 8 10 9 19 3 25 -5 5 -10 24 -12 41 -1 17 -6 29 -10 27
-8 -5 -12 17 -9 44 1 6 -3 12 -9 12 -5 0 -10 8 -10 18 0 9 -7 26 -15 36 -8 10
-12 23 -8 29 3 6 1 7 -5 3 -7 -4 -12 -1 -12 8 0 9 -4 16 -10 16 -5 0 -10 5
-10 10 0 6 -9 20 -20 32 -11 12 -20 28 -20 37 0 8 -2 12 -5 9 -3 -3 -28 17
-54 43 -27 27 -54 49 -59 49 -5 0 -23 13 -39 29 -17 16 -47 34 -67 41 -20 6
-36 15 -36 20 0 6 -44 19 -65 20 -3 0 -18 6 -33 13 -15 7 -42 14 -61 15 -18 2
-41 7 -52 12 -12 7 -20 7 -24 0 -4 -6 -12 -7 -18 -3 -22 14 -59 15 -51 2 5 -9
3 -9 -7 -3 -19 12 -72 11 -81 -1 -5 -6 -8 -5 -8 3 0 8 -5 10 -12 5 -14 -8 -30
-12 -70 -16 -16 -1 -28 -5 -28 -9 0 -5 -12 -8 -26 -8 -14 0 -23 -4 -19 -10 4
-6 -9 -10 -32 -10 -28 0 -34 -3 -23 -10 12 -8 9 -10 -12 -10 -16 0 -28 -5 -28
-11 0 -5 -4 -8 -9 -4 -6 3 -14 -2 -19 -11 -5 -9 -12 -15 -15 -15 -21 3 -27 -1
-27 -15 0 -8 -4 -13 -9 -10 -5 3 -14 -1 -21 -9 -7 -8 -16 -12 -21 -9 -5 3 -6
-3 -2 -12 4 -11 3 -15 -4 -11 -6 4 -21 -5 -32 -19 -12 -15 -21 -24 -21 -20 0
4 -11 -4 -24 -16 -13 -13 -21 -26 -19 -30 2 -5 -3 -8 -12 -8 -9 0 -13 -4 -10
-10 3 -5 1 -10 -5 -10 -7 0 -25 -13 -40 -30 -15 -16 -33 -30 -39 -30 -6 0 -10
-4 -8 -9 1 -4 -17 -26 -40 -48 -24 -23 -43 -39 -43 -36 0 2 -18 -17 -40 -42
-22 -25 -40 -44 -40 -42 0 3 -21 -16 -47 -41 -27 -25 -47 -50 -45 -55 1 -5 -2
-6 -8 -2 -5 3 -10 2 -10 -4 0 -5 -9 -8 -20 -6 -11 2 -18 0 -15 -6 11 -18 -91
-14 -114 4 -12 10 -13 9 -6 -3 12 -19 -70 45 -112 88 -18 19 -33 39 -33 45 0
5 -3 8 -6 4 -4 -3 -28 16 -54 43 -26 27 -50 46 -54 43 -3 -4 -6 -1 -6 6 0 16
-25 41 -40 41 -6 0 -9 4 -5 9 3 5 -3 12 -14 16 -10 3 -21 15 -24 27 -4 13 -11
19 -21 15 -9 -4 -15 -3 -15 1 3 17 -2 32 -8 30 -5 -2 -42 30 -83 70 -41 39
-80 72 -88 72 -7 0 -11 4 -7 9 3 5 -4 12 -15 16 -11 3 -20 10 -20 15 0 5 -6 7
-13 4 -7 -2 -23 5 -35 16 -12 12 -33 22 -45 23 -12 1 -28 7 -35 14 -7 7 -18
10 -26 7 -7 -3 -18 1 -24 9 -7 8 -23 12 -37 9 -15 -2 -25 0 -25 7 0 6 -5 11
-11 11 -5 0 -7 -5 -3 -11 4 -8 1 -8 -12 -2 -30 15 -206 15 -197 0 4 -7 0 -7
-10 2 -9 7 -17 9 -17 4z m2212 -166 c-8 -10 -6 -13 8 -13 10 0 16 4 14 8 -3 4
-1 8 5 8 5 0 12 -4 15 -9 3 -4 17 -6 31 -3 14 2 33 -2 42 -9 14 -12 15 -12 9
-1 -7 12 -5 12 15 1 13 -8 29 -14 34 -15 6 0 28 -9 50 -19 22 -10 43 -17 48
-17 4 1 7 -2 7 -8 0 -6 6 -10 13 -10 6 0 29 -16 51 -35 21 -19 42 -35 48 -35
5 0 6 -5 3 -10 -3 -6 1 -13 9 -16 9 -3 16 -13 16 -21 0 -8 5 -11 10 -8 6 3 10
-1 10 -9 0 -9 3 -16 8 -16 4 0 12 -10 18 -23 6 -12 19 -37 29 -55 17 -34 23
-53 24 -85 1 -12 5 -16 14 -11 7 5 6 0 -3 -11 -9 -11 -10 -16 -2 -11 11 7 18
-24 13 -63 -2 -8 2 -10 11 -5 10 6 10 4 -1 -9 -9 -11 -10 -17 -2 -17 6 0 10
-3 10 -7 -5 -28 3 -83 10 -79 5 3 9 -13 10 -37 3 -62 4 -67 11 -67 7 0 8 -3
11 -57 1 -18 7 -33 13 -33 6 0 4 -5 -4 -10 -10 -6 -11 -10 -3 -10 7 0 12 -3
12 -7 -5 -29 3 -63 12 -57 8 4 8 1 1 -12 -7 -14 -6 -24 3 -38 8 -10 11 -24 8
-32 -3 -8 0 -21 7 -29 10 -12 10 -15 -1 -16 -10 0 -11 -2 -1 -6 6 -2 12 -20
12 -39 0 -19 4 -34 8 -34 4 0 8 -15 9 -32 1 -44 6 -62 18 -70 6 -5 4 -8 -5 -8
-11 0 -12 -2 -2 -8 7 -5 13 -25 14 -45 1 -20 4 -37 8 -37 3 0 6 -10 7 -22 2
-45 7 -78 13 -78 3 0 7 -17 8 -37 2 -20 8 -43 14 -50 8 -10 7 -13 -3 -13 -10
0 -10 -3 -1 -12 7 -7 12 -23 12 -36 0 -13 5 -33 11 -44 9 -16 8 -19 -3 -13
-10 6 -11 5 0 -6 6 -7 12 -25 12 -39 0 -15 3 -30 7 -34 4 -3 8 -14 8 -24 7
-71 11 -88 18 -93 4 -3 8 -25 9 -47 0 -23 4 -40 8 -37 4 3 8 -8 8 -23 0 -44 6
-72 14 -72 4 0 8 -5 8 -11 0 -5 -6 -7 -12 -3 -10 6 -10 5 -1 -7 6 -8 13 -30
15 -49 1 -19 8 -38 13 -42 7 -5 6 -13 -1 -25 -9 -15 -28 -17 -137 -17 -80 0
-124 -3 -120 -9 4 -6 1 -7 -8 -1 -19 12 -960 13 -952 1 4 -6 1 -7 -8 -1 -18
11 -1229 13 -1229 2 0 -4 -8 -8 -19 -8 -17 0 -27 -16 -37 -63 -3 -13 0 -16 8
-11 10 6 10 4 0 -8 -11 -14 -10 -20 5 -37 9 -12 27 -21 38 -22 20 0 20 0 0 -9
-18 -8 -18 -9 5 -10 14 -1 38 -3 53 -4 16 -1 31 2 33 6 3 5 10 5 17 1 16 -10
58 -10 63 -1 3 5 11 5 17 1 11 -6 46 -8 65 -3 18 5 49 4 74 -2 14 -3 29 -3 33
0 11 11 35 10 35 -1 0 -8 3 -8 11 0 7 7 21 8 40 3 16 -5 31 -5 34 0 6 9 24 8
43 -3 6 -5 12 -4 12 2 0 6 11 6 30 1 16 -5 32 -5 35 0 6 9 24 8 43 -3 6 -5 12
-4 12 2 0 6 11 6 30 1 16 -5 32 -5 35 0 6 9 24 8 43 -3 6 -5 12 -4 12 2 0 6
11 6 30 1 16 -5 32 -5 35 0 6 9 24 8 43 -3 6 -5 12 -4 12 2 0 6 11 6 30 1 16
-5 32 -5 35 0 6 9 24 8 43 -3 6 -5 12 -4 12 2 0 6 11 6 30 1 16 -5 32 -5 35 0
6 9 24 8 43 -3 6 -5 12 -4 12 2 0 6 11 6 30 1 16 -5 32 -5 35 0 6 9 24 8 43
-3 6 -5 12 -4 12 2 0 6 11 6 30 1 16 -5 32 -5 35 0 6 9 24 8 43 -3 6 -5 12 -4
12 2 0 6 11 6 30 1 16 -5 32 -5 35 0 6 9 24 8 43 -3 6 -5 12 -4 12 2 0 6 11 6
30 1 16 -5 32 -5 35 0 6 9 24 8 43 -3 6 -5 12 -4 12 2 0 6 11 6 30 1 16 -5 32
-5 35 0 6 9 24 8 43 -3 6 -5 12 -4 12 2 0 6 11 6 30 1 16 -5 32 -5 35 0 6 9
24 8 43 -3 6 -5 12 -4 12 2 0 6 11 6 30 1 16 -5 32 -5 35 0 6 9 24 8 43 -3 6
-5 12 -4 12 2 0 6 11 6 30 1 16 -5 32 -5 35 0 6 9 24 8 43 -3 6 -5 12 -4 12 2
0 6 11 6 30 1 16 -5 32 -5 35 0 6 9 24 8 43 -3 6 -5 12 -4 12 2 0 6 11 6 30 1
16 -5 32 -5 35 0 6 9 24 8 43 -3 6 -5 12 -4 12 2 0 6 11 6 30 1 16 -5 32 -5
35 0 6 9 24 8 43 -3 7 -5 12 -3 12 3 0 7 6 8 19 1 10 -6 21 -7 25 -4 3 3 6 -8
6 -25 0 -19 5 -32 13 -33 8 0 8 -2 -2 -6 -9 -4 -10 -8 -2 -12 6 -4 12 -26 13
-49 1 -23 4 -42 8 -42 4 0 7 -18 8 -40 1 -22 2 -43 3 -47 1 -5 1 -16 0 -27 -1
-15 -4 -16 -16 -6 -8 7 -20 8 -27 4 -7 -5 -108 -9 -225 -9 -116 0 -206 3 -200
7 16 11 -24 5 -40 -5 -8 -5 -13 -3 -14 5 0 10 -2 10 -6 1 -3 -9 -10 -10 -24
-3 -14 8 -19 7 -19 -2 0 -9 -3 -9 -10 2 -6 10 -10 11 -10 3 0 -7 -5 -13 -11
-13 -5 0 -8 4 -5 8 2 4 -5 9 -17 9 -13 1 -17 -1 -10 -5 7 -5 -10 -8 -37 -8
-28 0 -44 4 -37 8 16 11 -23 5 -40 -5 -8 -5 -13 -3 -14 5 0 10 -2 10 -6 1 -3
-9 -10 -10 -24 -3 -14 8 -19 7 -19 -2 0 -9 -3 -9 -10 2 -6 10 -10 11 -10 3 0
-7 -5 -13 -11 -13 -5 0 -8 4 -5 8 2 4 -5 9 -17 9 -13 1 -17 -1 -10 -5 6 -4
-118 -7 -277 -7 -158 0 -283 3 -277 8 16 10 -24 4 -40 -6 -8 -5 -13 -3 -14 5
0 10 -2 10 -6 1 -3 -9 -10 -10 -24 -3 -14 8 -19 7 -19 -2 0 -9 -3 -9 -10 2 -6
10 -10 11 -10 3 0 -7 -5 -13 -11 -13 -5 0 -8 4 -5 8 2 4 -5 9 -17 9 -13 1 -17
-1 -10 -5 7 -5 -10 -8 -37 -8 -28 0 -44 4 -37 8 16 11 -23 5 -40 -5 -8 -5 -13
-3 -14 5 0 10 -2 10 -6 1 -3 -9 -10 -10 -24 -3 -14 8 -19 7 -19 -2 0 -9 -3 -9
-10 2 -6 10 -10 11 -10 3 0 -7 -5 -13 -11 -13 -5 0 -8 4 -5 8 2 4 -5 9 -17 9
-13 1 -17 -1 -10 -5 6 -4 -95 -7 -225 -7 -130 0 -243 4 -249 8 -8 5 -13 3 -13
-4 0 -8 -4 -8 -15 1 -12 10 -18 10 -32 -1 -9 -8 -14 -9 -11 -4 4 6 -2 11 -12
11 -10 0 -16 -4 -14 -8 7 -11 -4 -10 -26 2 -13 7 -21 7 -25 0 -3 -5 -12 -10
-18 -10 -7 0 -6 4 3 10 12 8 11 10 -5 7 -11 -1 -26 -6 -32 -10 -8 -5 -13 -3
-14 5 0 10 -2 10 -6 1 -3 -9 -10 -10 -24 -3 -14 8 -19 7 -19 -2 0 -8 -3 -9 -8
-3 -9 13 -35 18 -27 5 3 -5 -1 -10 -10 -10 -9 0 -14 4 -11 9 7 10 -20 9 -30
-2 -4 -4 -12 -7 -18 -7 -6 0 -4 5 4 10 12 8 11 10 -5 7 -11 -1 -26 -6 -32 -10
-8 -5 -13 -3 -14 5 0 10 -2 10 -6 1 -3 -9 -10 -10 -23 -3 -13 7 -21 7 -25 0
-3 -5 -12 -10 -18 -10 -7 0 -6 4 3 10 12 8 11 10 -5 7 -11 -1 -26 -6 -32 -10
-8 -5 -13 -3 -14 5 0 10 -2 10 -6 1 -3 -9 -10 -10 -24 -3 -14 8 -19 7 -20 -2
0 -10 -2 -10 -6 0 -2 6 -9 12 -14 12 -6 0 -8 -4 -5 -9 7 -11 -13 -9 -31 2 -8
5 -13 3 -13 -4 0 -8 -4 -8 -15 1 -12 10 -18 10 -32 -1 -9 -8 -14 -9 -11 -4 4
6 -2 11 -12 11 -10 0 -16 -4 -14 -8 7 -11 -4 -10 -26 2 -13 7 -21 7 -25 0 -3
-5 -12 -10 -18 -10 -7 0 -6 4 3 10 12 8 11 10 -5 7 -11 -1 -26 -6 -32 -10 -8
-5 -13 -3 -14 5 0 10 -2 10 -6 1 -3 -9 -10 -10 -24 -3 -14 8 -19 7 -19 -2 0
-8 -3 -9 -8 -3 -9 13 -35 18 -27 5 3 -5 -1 -10 -10 -10 -9 0 -14 4 -11 9 7 10
-20 9 -30 -2 -4 -4 -12 -7 -18 -7 -6 0 -4 5 4 10 12 8 11 10 -5 7 -11 -1 -26
-6 -32 -10 -8 -5 -13 -3 -14 5 0 10 -2 10 -6 1 -3 -9 -10 -10 -23 -3 -13 7
-21 7 -25 0 -3 -5 -12 -10 -18 -10 -7 0 -6 4 3 10 12 8 11 10 -5 7 -11 -1 -26
-6 -32 -10 -8 -5 -13 -3 -14 5 0 10 -2 10 -6 1 -3 -9 -10 -10 -24 -3 -14 8
-19 7 -20 -2 0 -10 -2 -10 -6 0 -2 6 -9 12 -14 12 -6 0 -8 -4 -5 -9 7 -11 -13
-9 -31 2 -8 5 -13 3 -13 -4 0 -8 -4 -8 -15 1 -12 10 -18 10 -32 -1 -9 -8 -14
-9 -11 -4 4 6 -2 11 -12 11 -10 0 -16 -4 -14 -8 7 -11 -4 -10 -26 2 -13 7 -21
7 -25 0 -3 -5 -12 -10 -18 -10 -7 0 -6 4 3 10 12 8 11 10 -5 7 -11 -1 -26 -6
-32 -10 -8 -5 -13 -3 -14 5 0 10 -2 10 -6 1 -3 -9 -10 -10 -24 -3 -14 8 -19 7
-19 -2 0 -8 -3 -9 -8 -3 -9 13 -35 18 -27 5 3 -5 -1 -10 -10 -10 -9 0 -14 4
-11 9 7 11 -13 9 -32 -3 -7 -4 -18 -3 -25 3 -8 6 -18 6 -27 1 -8 -6 -17 -10
-20 -10 -12 0 -9 54 2 68 7 9 8 13 2 9 -6 -3 -11 0 -11 8 0 8 4 12 9 9 4 -3 8
11 8 30 0 19 5 38 10 41 8 5 8 11 0 20 -8 9 -8 15 0 20 5 3 10 21 10 39 0 18
3 36 7 40 7 7 14 40 17 81 0 11 4 22 8 25 4 3 8 26 9 50 1 25 6 50 11 56 4 6
9 29 11 52 1 22 5 38 9 35 7 -3 12 41 11 85 -1 6 2 12 6 12 4 0 8 6 8 13 3 48
8 77 15 77 4 0 8 5 8 11 0 5 -6 7 -12 3 -10 -6 -10 -4 0 8 7 9 14 32 15 51 1
19 6 33 10 30 5 -3 8 1 6 8 -1 8 -1 31 0 52 1 28 4 36 14 31 7 -5 6 0 -3 11
-9 11 -10 16 -3 11 10 -5 13 3 13 28 0 20 5 36 10 36 6 0 10 5 10 11 0 5 -5 7
-12 3 -7 -5 -8 -3 -2 7 9 15 12 29 16 71 1 15 6 24 10 22 7 -4 12 36 12 98 0
9 3 15 8 12 4 -3 9 12 10 33 2 51 4 65 11 83 4 8 8 24 10 35 1 11 6 26 10 33
5 7 3 12 -5 12 -10 0 -10 2 1 9 7 5 13 25 13 45 0 20 4 36 9 36 5 0 9 17 9 38
0 21 6 44 13 51 6 8 7 11 1 8 -6 -3 -11 0 -11 8 0 8 5 13 10 12 5 -1 10 16 11
38 1 22 4 45 8 51 4 6 8 27 10 47 1 21 5 37 9 37 3 0 5 10 5 23 -1 12 2 28 7
35 5 6 6 12 2 12 -4 0 -2 6 4 14 9 10 9 16 1 21 -8 5 -8 11 -1 19 6 7 12 21
14 32 1 10 7 25 11 33 7 11 6 12 -5 6 -11 -7 -12 -6 -2 6 7 9 14 36 15 61 2
26 6 44 10 41 5 -2 8 9 8 24 0 16 6 35 13 42 10 11 9 12 -3 6 -12 -6 -13 -5
-2 6 6 7 12 21 12 31 0 10 5 18 10 18 6 0 10 9 10 20 0 11 3 20 8 20 4 0 13
14 20 30 8 17 18 28 23 24 5 -3 9 3 9 13 0 10 11 27 25 37 13 10 22 23 19 28
-3 4 -2 8 3 7 20 -3 34 2 28 11 -3 6 -1 10 5 10 12 0 71 39 81 54 4 5 14 6 24
3 9 -4 14 -3 10 3 -4 6 7 13 24 16 17 4 28 10 26 14 -3 5 3 7 12 5 10 -1 22 0
27 3 28 16 226 23 226 8 0 -6 4 -5 9 3 7 11 12 11 31 -2 12 -8 29 -13 36 -10
8 3 14 0 14 -7 0 -6 4 -9 8 -6 10 6 108 -41 135 -64 10 -8 29 -25 42 -37 13
-13 29 -23 35 -23 6 0 9 -3 7 -7 -2 -5 17 -26 44 -48 26 -22 48 -46 48 -52 1
-7 10 -13 22 -13 11 0 18 -4 15 -8 -3 -5 8 -19 25 -31 16 -12 27 -27 23 -33
-4 -6 -3 -8 3 -5 5 3 15 -3 23 -13 8 -10 17 -17 22 -14 4 3 8 -1 8 -8 0 -7 14
-22 30 -33 16 -11 30 -26 30 -33 0 -7 5 -10 10 -7 6 3 10 -1 10 -10 0 -9 5
-13 10 -10 6 3 10 -2 10 -11 0 -10 3 -14 6 -11 4 3 28 -16 54 -43 27 -26 51
-46 54 -43 3 4 6 1 6 -6 0 -7 5 -9 10 -6 6 3 10 1 10 -4 0 -6 7 -11 16 -11 8
0 13 -4 10 -8 -2 -4 9 -9 26 -10 39 -3 50 -10 41 -25 -5 -8 -2 -8 9 0 8 7 18
10 21 6 10 -9 106 -10 100 0 -2 4 7 6 21 3 15 -3 24 -1 21 5 -4 5 4 9 17 9 13
0 34 9 48 20 14 11 29 20 34 20 5 0 17 10 27 22 11 11 19 18 19 15 0 -3 13 6
28 21 15 15 27 29 26 32 -2 3 11 15 27 25 16 11 29 26 29 33 0 6 4 12 9 12 11
0 91 80 91 91 0 5 6 9 13 9 19 0 59 45 50 55 -5 4 -3 5 3 2 13 -7 45 28 36 39
-4 4 -2 4 4 1 14 -8 47 26 37 37 -5 4 -1 6 7 4 8 -1 14 3 12 10 -1 6 5 12 13
12 8 0 19 9 25 20 6 11 17 20 25 20 8 0 15 5 15 10 0 6 11 15 25 22 13 6 23
14 20 18 -2 3 12 12 31 19 19 7 32 16 30 20 -3 4 7 8 22 9 15 1 29 7 30 12 2
6 17 10 33 10 16 0 29 3 29 8 0 4 19 7 43 7 23 0 47 3 52 6 6 4 19 9 30 12 11
2 22 5 24 6 2 0 -1 -5 -7 -12z"/>
<path d="M1836 3203 c-3 -3 -20 -6 -38 -5 -20 0 -27 -2 -19 -7 9 -6 7 -10 -8
-14 -15 -4 -21 -13 -21 -35 0 -17 -6 -33 -12 -35 -10 -4 -10 -6 0 -6 6 -1 12
-7 12 -14 0 -7 9 -19 19 -27 11 -7 18 -16 16 -20 -2 -3 17 -5 42 -5 30 1 50 7
58 18 7 9 14 15 16 12 3 -2 6 5 6 17 1 12 8 25 15 29 10 7 10 9 1 9 -7 0 -13
9 -13 20 0 32 -57 80 -74 63z"/>
<path d="M1516 2291 c-3 -4 -24 -8 -47 -10 -23 -1 -47 -4 -51 -7 -5 -3 -24 -8
-41 -11 -18 -3 -33 -9 -35 -14 -2 -5 -8 -9 -13 -9 -6 0 -7 6 -3 13 4 6 -2 3
-14 -7 -12 -11 -22 -15 -22 -10 0 5 -7 0 -15 -10 -8 -11 -15 -15 -15 -8 0 6
-7 9 -15 6 -8 -4 -12 -10 -9 -15 3 -5 -4 -9 -16 -9 -12 0 -28 -7 -37 -15 -8
-8 -19 -12 -25 -9 -6 4 -8 3 -5 -3 6 -10 -40 -38 -56 -35 -4 1 -6 -3 -5 -9 2
-6 -6 -16 -17 -22 -11 -7 -31 -24 -46 -39 -15 -16 -32 -28 -39 -28 -6 0 -8 -4
-5 -10 3 -5 1 -10 -5 -10 -6 0 -9 -4 -6 -9 3 -5 -1 -11 -9 -15 -8 -3 -15 -12
-15 -21 0 -8 -6 -14 -12 -13 -7 2 -12 -2 -11 -8 1 -7 -8 -23 -20 -36 -13 -14
-21 -30 -19 -36 2 -7 -1 -12 -6 -12 -9 0 -17 -19 -27 -57 -2 -6 -10 -21 -18
-33 -8 -12 -12 -31 -9 -42 3 -14 1 -19 -6 -14 -8 5 -12 -5 -12 -34 0 -30 -3
-39 -12 -34 -8 5 -7 0 2 -11 9 -11 10 -16 3 -11 -10 5 -13 -5 -14 -41 -3 -138
2 -243 13 -243 4 0 8 -5 8 -11 0 -5 -6 -7 -12 -3 -10 6 -10 4 0 -7 6 -7 12
-23 12 -36 0 -13 6 -23 13 -23 8 0 7 -4 -3 -10 -10 -6 -11 -10 -2 -10 6 0 12
-8 12 -18 0 -22 22 -72 33 -72 4 0 7 -9 7 -20 0 -12 9 -30 20 -42 11 -12 20
-29 20 -37 0 -9 9 -22 20 -29 11 -7 20 -17 20 -23 0 -15 26 -39 35 -31 4 4 6
2 5 -3 -4 -19 0 -38 6 -32 8 7 34 -17 34 -32 0 -10 14 -15 33 -12 7 1 11 -16
7 -34 -1 -5 2 -7 6 -3 4 4 20 -2 35 -13 16 -11 29 -18 29 -14 0 3 12 -6 28
-20 15 -14 33 -23 40 -20 7 3 11 1 8 -4 -3 -4 6 -13 20 -20 20 -9 24 -9 18 1
-9 14 26 -10 38 -27 4 -5 8 -7 8 -3 0 4 11 3 26 -2 31 -12 83 -23 107 -22 11
1 15 -4 10 -11 -4 -7 0 -6 10 2 12 9 17 10 17 2 0 -7 5 -9 10 -6 6 3 10 0 10
-7 0 -8 3 -9 8 -3 4 6 18 9 32 8 14 -2 43 -3 65 -2 22 1 47 1 55 1 8 1 21 6
29 12 11 8 13 8 7 -1 -4 -8 -2 -13 8 -13 8 0 18 4 21 10 3 5 16 9 28 8 12 0
34 4 50 10 15 6 27 9 27 6 0 -4 11 1 25 10 13 9 36 17 49 18 14 1 22 6 20 10
-3 4 4 8 15 8 12 0 21 5 21 11 0 7 9 9 21 6 17 -4 18 -3 8 9 -10 12 -9 13 5 8
9 -3 16 -1 16 5 0 6 7 11 15 11 8 0 25 11 39 25 14 14 30 25 36 25 6 0 9 4 6
9 -3 4 6 13 20 20 14 6 22 16 19 21 -4 6 -1 9 7 8 7 -2 12 3 10 10 -1 8 2 11
8 7 5 -3 15 5 22 19 6 14 15 26 20 26 4 0 8 7 8 16 0 8 5 12 10 9 6 -3 10 1
10 9 0 9 5 16 10 16 6 0 10 10 10 22 0 12 3 18 7 15 8 -9 33 40 33 65 0 10 5
16 10 13 6 -3 10 2 10 12 0 11 4 23 9 28 6 6 12 21 14 35 2 14 7 32 10 40 4 8
8 26 10 40 2 14 7 33 11 42 4 9 5 21 2 26 -7 12 22 25 35 16 5 -3 9 0 9 6 0 6
5 8 13 3 20 -12 37 -12 37 0 0 9 2 9 8 0 8 -12 62 -13 62 0 0 5 6 5 13 0 20
-12 37 -12 37 0 0 9 2 9 8 0 8 -12 62 -13 62 0 0 5 6 5 13 0 20 -12 37 -12 37
0 0 9 2 9 8 0 8 -12 62 -13 62 0 0 5 6 5 13 0 20 -12 37 -12 37 0 0 9 2 9 8 0
8 -12 62 -13 62 0 0 5 6 5 13 0 20 -12 37 -12 37 0 0 9 2 9 8 0 8 -12 62 -13
62 0 0 5 6 5 13 0 20 -12 37 -12 37 0 0 9 2 9 8 0 8 -12 62 -13 62 0 0 5 6 5
13 0 20 -12 37 -12 37 0 0 8 3 7 9 -1 4 -8 12 -14 16 -14 4 0 12 6 16 14 6 8
9 9 9 1 0 -6 9 -9 20 -6 14 4 20 0 20 -11 0 -11 5 -15 13 -10 9 5 9 4 0 -6 -9
-9 -9 -17 -2 -26 5 -6 11 -25 12 -42 1 -16 5 -28 10 -25 4 2 7 -12 7 -31 0
-20 5 -36 10 -36 6 0 10 -11 10 -24 0 -13 7 -29 15 -36 8 -7 12 -16 9 -21 -3
-5 0 -9 5 -9 6 0 11 -6 11 -14 0 -7 7 -19 15 -26 8 -7 12 -16 9 -21 -3 -5 0
-9 5 -9 6 0 11 -7 11 -15 0 -8 9 -19 20 -25 11 -6 20 -15 20 -21 0 -13 26 -39
39 -39 6 0 8 -7 5 -15 -4 -8 -1 -15 5 -15 6 0 26 -15 46 -34 19 -19 35 -32 35
-29 0 2 7 -2 15 -9 31 -28 42 -35 98 -62 31 -16 57 -31 57 -35 0 -4 8 -7 18
-8 9 -1 31 -7 47 -14 36 -15 40 -15 85 -18 27 -1 31 -4 20 -11 -9 -6 -10 -10
-3 -10 6 0 15 5 18 10 5 8 11 8 19 0 16 -12 239 -12 231 0 -3 5 5 9 17 8 45
-2 69 2 64 11 -3 5 8 7 25 6 16 -1 35 2 42 9 7 6 21 13 32 14 11 2 22 7 25 11
3 4 20 13 37 20 18 7 30 17 27 22 -3 5 2 6 10 3 9 -4 18 1 22 10 3 9 10 14 14
11 4 -3 21 7 38 23 17 15 42 35 56 46 14 10 23 23 20 28 -3 4 0 7 6 6 7 -2 17
6 23 17 7 11 20 26 30 33 9 7 15 18 12 23 -4 5 0 9 8 9 8 0 17 8 21 17 11 33
43 82 50 76 3 -3 6 6 6 20 0 15 5 27 10 27 6 0 10 7 10 16 0 9 8 23 18 30 16
13 16 14 -3 7 -19 -6 -19 -5 -4 13 9 10 14 25 12 32 -3 6 -1 12 5 12 5 0 9 16
10 36 1 20 7 43 13 50 9 11 8 14 -2 14 -9 0 -10 3 -3 8 15 10 19 198 4 207 -8
5 -8 11 1 21 8 10 8 14 0 14 -6 0 -11 5 -11 11 0 5 6 7 13 3 10 -6 10 -4 0 7
-7 7 -13 26 -13 41 0 15 -4 28 -10 28 -5 0 -9 3 -9 8 4 24 -2 62 -10 58 -5 -3
-8 5 -8 18 -1 14 -10 38 -22 54 -11 17 -21 35 -21 41 0 6 -5 11 -11 11 -5 0
-8 4 -4 9 3 5 -2 16 -10 24 -8 9 -15 21 -15 27 0 6 -4 8 -10 5 -9 -6 -14 8
-11 28 1 5 -3 6 -9 2 -5 -3 -10 1 -10 10 0 9 -4 13 -10 10 -5 -3 -10 -1 -10 5
0 10 -83 98 -97 103 -5 1 -7 6 -5 10 1 5 -2 6 -7 3 -5 -4 -19 4 -30 16 -12 12
-21 18 -21 14 0 -5 -16 4 -35 18 -19 15 -35 23 -35 19 0 -4 -4 -2 -8 4 -5 7
-20 14 -34 15 -15 1 -25 5 -22 9 3 5 -73 32 -96 34 -3 0 -11 4 -19 9 -10 7
-12 5 -6 -5 6 -11 5 -12 -6 -1 -7 6 -32 12 -55 12 -24 0 -45 4 -48 8 -8 13
-153 3 -226 -15 -42 -10 -54 -13 -77 -15 -12 -1 -19 -6 -17 -10 5 -7 -13 -12
-43 -11 -7 1 -10 -3 -7 -8 3 -5 -7 -9 -21 -9 -15 0 -24 -4 -20 -10 4 -6 -5
-10 -20 -10 -15 0 -24 -4 -20 -10 3 -5 -2 -10 -13 -10 -10 0 -29 -11 -42 -25
-13 -14 -30 -23 -38 -20 -7 2 -10 1 -7 -5 3 -5 -6 -15 -19 -22 -14 -7 -25 -16
-25 -20 -1 -5 -2 -7 -4 -5 -6 5 -35 -28 -30 -35 2 -5 -4 -8 -14 -8 -15 0 -16
-2 -3 -10 12 -8 12 -10 1 -10 -7 0 -25 -12 -39 -27 -14 -16 -24 -28 -22 -28 4
0 -31 -57 -40 -65 -9 -7 -44 -82 -46 -99 -2 -7 -7 -18 -13 -24 -6 -6 -11 -24
-11 -40 0 -15 -3 -26 -7 -24 -5 3 -9 -18 -11 -46 -2 -28 -8 -54 -13 -58 -6 -3
-9 -10 -7 -15 2 -5 -191 -10 -449 -12 -442 -2 -453 -2 -453 17 0 11 -6 22 -12
24 -10 4 -9 6 1 6 10 1 10 5 3 14 -5 6 -13 28 -17 47 -4 19 -9 47 -12 62 -3
15 -9 25 -14 22 -5 -3 -9 8 -9 24 0 15 -8 37 -18 48 -20 21 -22 26 -22 50 0 8
-4 12 -10 9 -5 -3 -10 1 -10 9 0 9 -4 16 -10 16 -5 0 -10 6 -10 13 0 8 -9 22
-20 32 -11 10 -20 24 -20 32 0 8 -4 11 -10 8 -5 -3 -10 1 -10 10 0 9 -4 13
-10 10 -5 -3 -10 -1 -10 5 0 6 -7 18 -15 26 -8 9 -15 13 -15 10 0 -3 -12 7
-27 21 -16 14 -27 30 -25 35 1 5 -2 7 -6 4 -5 -3 -22 5 -38 19 -15 13 -31 22
-36 19 -4 -3 -11 2 -14 10 -3 9 -10 14 -14 11 -4 -3 -13 2 -20 10 -7 8 -21 15
-31 15 -11 0 -19 4 -19 10 0 5 -6 7 -14 4 -8 -3 -17 0 -21 5 -3 6 -11 9 -16 6
-5 -4 -9 -1 -9 5 0 7 -7 10 -15 6 -8 -3 -15 -2 -15 2 0 4 -8 8 -17 8 -10 1
-34 5 -53 9 -19 4 -47 8 -61 10 -15 1 -31 5 -36 8 -5 3 -15 2 -23 -3 -9 -5
-19 -5 -27 2 -9 7 -13 7 -13 -1 0 -7 -5 -9 -12 -4 -18 11 -37 13 -42 4z m36
-176 c5 -7 8 -6 8 0 0 7 22 9 63 4 34 -3 72 -5 84 -4 12 1 20 -2 17 -6 -3 -5
9 -9 26 -9 18 0 29 -4 25 -10 -3 -5 0 -7 8 -4 8 3 18 0 22 -5 3 -6 11 -9 16
-6 5 4 9 2 9 -4 0 -5 14 -12 30 -16 17 -4 30 -11 30 -16 0 -6 4 -8 8 -5 5 3
14 -4 22 -14 8 -10 17 -17 22 -14 4 3 8 0 8 -6 0 -6 5 -8 10 -5 6 3 10 -1 10
-10 0 -9 5 -13 10 -10 6 3 10 -2 10 -11 0 -10 3 -15 6 -11 8 8 74 -61 74 -78
0 -7 7 -16 16 -19 8 -3 12 -10 9 -16 -3 -5 -1 -10 4 -10 6 0 11 -9 11 -21 0
-11 5 -17 10 -14 9 5 15 -16 11 -38 -1 -5 3 -6 9 -2 10 6 14 -6 10 -39 -1 -11
3 -15 9 -12 7 5 11 -4 11 -22 0 -16 3 -32 7 -36 18 -18 20 -230 3 -252 -11
-13 -11 -17 -1 -24 9 -5 10 -10 2 -14 -6 -4 -11 -18 -11 -32 0 -13 -5 -24 -11
-24 -5 0 -8 -4 -5 -9 6 -9 -58 -136 -80 -158 -8 -8 -14 -19 -14 -24 0 -5 -7
-9 -16 -9 -8 0 -13 -3 -11 -7 2 -5 -13 -25 -35 -45 -21 -21 -38 -36 -38 -33 0
3 -9 -4 -20 -15 -11 -11 -27 -20 -35 -20 -8 0 -14 -6 -12 -12 1 -8 -7 -13 -20
-12 -13 1 -20 -3 -17 -7 3 -5 -4 -9 -15 -9 -12 0 -21 -4 -21 -8 0 -8 -6 -10
-49 -14 -11 -1 -17 -6 -15 -10 5 -7 -41 -12 -49 -5 -2 1 -12 -5 -22 -13 -15
-12 -17 -12 -10 -1 6 11 5 12 -6 5 -15 -9 -170 -14 -165 -5 2 3 -16 7 -41 8
-25 1 -49 5 -52 10 -3 4 -19 9 -35 11 -17 2 -42 12 -58 23 -15 11 -28 17 -28
12 0 -4 -7 1 -16 12 -8 11 -17 19 -19 18 -13 -8 -25 -1 -25 13 0 8 -5 12 -10
9 -13 -8 -42 14 -34 26 3 5 2 9 -3 8 -4 -1 -15 -1 -23 0 -13 1 -13 2 0 11 12
8 12 10 1 10 -16 0 -71 55 -71 70 0 6 -4 9 -8 6 -5 -3 -15 10 -22 29 -8 19
-17 35 -22 35 -4 0 -7 3 -7 8 3 19 -2 33 -11 27 -6 -4 -10 5 -10 19 0 14 -4
26 -10 26 -5 0 -9 3 -9 8 4 23 -2 52 -10 48 -5 -3 -9 4 -9 17 1 60 -6 107 -16
107 -6 0 -4 5 4 10 12 8 12 10 1 10 -11 0 -11 3 -1 15 10 12 10 15 -1 15 -10
0 -10 3 -1 12 16 16 15 31 0 22 -10 -6 -10 -4 -2 7 5 8 12 32 13 54 2 22 6 42
9 45 4 3 8 19 10 35 2 17 8 32 13 33 5 2 9 12 9 22 0 10 5 22 10 25 6 4 8 10
5 15 -3 4 2 13 10 20 8 7 15 19 15 26 0 8 5 14 10 14 6 0 10 6 10 14 0 8 7 17
16 20 9 4 14 9 11 12 -7 8 38 54 53 54 6 0 8 5 5 10 -3 6 2 10 11 10 10 0 15
3 11 6 -9 10 19 34 40 34 15 0 16 2 3 11 -12 9 -11 10 8 6 13 -3 22 0 22 6 0
11 90 57 111 57 5 0 9 4 9 8 0 9 7 10 55 13 14 1 25 5 25 9 0 4 16 7 35 6 19
-1 35 2 35 6 0 11 23 5 32 -7z m2532 2 c9 9 36 13 36 5 0 -4 20 -7 45 -6 24 0
42 -3 39 -8 -3 -4 8 -8 23 -8 16 0 38 -6 48 -14 11 -8 24 -12 30 -9 7 2 18 -3
25 -12 7 -8 18 -15 24 -15 13 0 46 -23 82 -56 12 -12 25 -19 28 -16 3 3 6 0 6
-6 0 -7 7 -12 16 -12 8 0 13 -4 10 -9 -3 -5 1 -12 10 -15 9 -4 14 -9 11 -12
-3 -3 8 -18 24 -33 16 -16 29 -33 29 -40 0 -6 5 -11 10 -11 6 0 10 -9 10 -21
0 -11 5 -17 10 -14 6 3 10 -2 10 -12 0 -10 9 -33 20 -51 12 -19 15 -30 8 -26
-10 5 -11 4 0 -7 6 -7 12 -24 12 -37 0 -13 4 -21 8 -18 5 3 9 -1 9 -9 0 -8 -5
-11 -11 -8 -6 4 -5 -1 3 -10 8 -10 13 -44 14 -92 0 -47 4 -75 11 -75 6 0 5 -4
-2 -9 -8 -4 -13 -11 -13 -15 5 -36 -1 -96 -9 -91 -6 4 -10 -6 -10 -23 0 -16
-3 -32 -7 -36 -8 -8 -9 -13 -12 -42 0 -8 -5 -12 -11 -9 -5 3 -10 -1 -10 -9 0
-20 -40 -86 -52 -86 -5 0 -6 -4 -3 -10 3 -5 1 -10 -6 -10 -7 0 -10 -2 -7 -5 7
-7 -39 -56 -74 -79 -15 -10 -25 -23 -21 -29 3 -6 1 -7 -5 -3 -7 4 -12 2 -12
-4 0 -6 -4 -8 -10 -5 -5 3 -10 1 -10 -4 0 -6 -7 -11 -16 -11 -8 0 -12 -5 -9
-10 4 -6 3 -10 -2 -9 -22 4 -43 -2 -38 -11 4 -6 -5 -10 -20 -10 -14 0 -24 -4
-21 -8 4 -7 -12 -12 -56 -15 -9 -1 -15 -4 -12 -8 2 -4 -22 -10 -54 -15 -68 -9
-222 -12 -217 -3 3 3 -12 6 -31 7 -19 1 -40 5 -47 9 -7 4 -21 9 -32 10 -10 2
-23 9 -27 16 -4 6 -8 8 -8 4 0 -4 -10 -2 -22 5 -13 7 -27 11 -31 10 -4 -1 -10
5 -13 13 -3 8 -10 12 -15 9 -5 -3 -9 0 -9 6 0 6 -4 9 -9 6 -5 -3 -11 1 -15 9
-3 8 -12 15 -21 15 -8 0 -15 7 -15 16 0 8 -4 12 -10 9 -5 -3 -10 -1 -10 5 0 6
-4 8 -10 5 -10 -6 -15 9 -10 30 1 5 -1 7 -5 3 -9 -8 -35 16 -35 32 0 6 -4 8
-10 5 -5 -3 -10 -1 -10 5 0 6 -9 20 -20 32 -11 12 -20 28 -20 35 0 7 -4 13
-10 13 -5 0 -10 7 -10 15 0 8 -9 31 -20 50 -11 20 -18 40 -15 46 4 5 2 9 -4 9
-6 0 -7 7 -4 17 4 9 2 14 -3 10 -6 -3 -10 17 -9 50 0 38 -4 57 -15 64 -12 6
-12 8 -1 9 10 0 11 3 2 13 -8 10 -7 17 1 25 9 9 9 12 -2 12 -13 0 -13 2 0 10
13 9 13 10 0 10 -13 0 -13 1 0 10 8 5 11 10 5 10 -5 0 -3 5 5 10 10 6 11 10 3
10 -9 0 -10 7 -3 25 5 14 6 25 3 25 -4 0 -2 5 5 12 7 7 12 25 12 40 0 15 5 28
10 28 6 0 10 8 10 18 0 10 3 22 7 26 4 3 8 14 9 24 2 9 8 18 13 20 6 2 11 10
11 18 0 8 9 24 20 36 10 13 20 28 21 33 1 6 10 16 21 23 10 7 16 18 13 23 -4
5 1 9 9 9 8 0 20 8 25 18 6 9 11 14 11 10 0 -4 15 6 32 23 18 16 39 29 47 29
8 0 11 3 8 7 -7 7 51 38 66 35 4 -1 7 3 7 8 0 6 12 10 26 10 14 0 23 4 20 8
-2 4 7 9 21 10 13 1 30 5 36 9 7 4 36 8 65 9 29 1 55 4 59 7 3 4 13 2 23 -3
10 -5 20 -6 24 -3z"/>
<path d="M1562 1950 c-14 -6 -20 -14 -16 -21 4 -7 3 -9 -3 -6 -6 4 -17 -1 -24
-10 -12 -14 -12 -16 0 -8 11 6 12 5 5 -6 -25 -41 2 -108 45 -109 9 -1 33 -7
53 -14 24 -8 35 -9 31 -3 -4 6 7 1 24 -11 17 -12 36 -22 41 -22 6 0 17 -8 24
-18 7 -10 21 -21 31 -25 9 -3 17 -14 17 -22 0 -9 5 -13 10 -10 6 3 10 -1 10
-9 0 -9 5 -16 10 -16 6 0 10 -11 10 -24 0 -14 5 -28 10 -31 6 -3 10 -16 10
-27 0 -12 3 -19 6 -15 3 3 14 -2 25 -12 11 -10 32 -16 51 -15 48 3 50 3 44 12
-3 5 4 15 15 22 14 11 19 26 19 57 0 24 -4 43 -9 43 -5 0 -8 12 -8 27 0 15 -6
29 -12 31 -6 2 -11 13 -11 23 0 11 -4 17 -10 14 -5 -3 -10 1 -10 9 0 9 -4 16
-10 16 -5 0 -10 5 -10 10 0 13 -66 80 -78 80 -5 0 -17 9 -27 20 -10 11 -27 20
-37 20 -11 0 -16 5 -13 10 5 9 -15 15 -37 11 -5 0 -8 4 -8 10 0 5 -4 8 -9 4
-5 -3 -12 -1 -16 5 -4 6 -11 8 -16 4 -5 -3 -17 0 -26 8 -14 11 -16 11 -8 -2 7
-12 6 -13 -6 -5 -19 14 -59 16 -87 5z"/>
<path d="M4026 1949 c2 -4 -5 -10 -16 -14 -11 -3 -20 -13 -20 -21 0 -10 -5
-12 -12 -8 -8 5 -7 0 2 -11 9 -11 10 -16 3 -11 -16 9 -16 1 0 -47 8 -20 17
-34 20 -30 4 3 7 1 7 -6 0 -7 5 -9 10 -6 6 3 10 1 10 -5 0 -6 5 -8 10 -5 6 3
10 1 10 -6 0 -8 3 -9 13 0 8 6 16 8 19 5 3 -3 19 -7 34 -9 16 -2 45 -10 65
-19 42 -18 122 -93 114 -107 -4 -5 -1 -8 6 -7 7 2 14 -4 14 -12 2 -27 26 -75
48 -95 21 -19 68 -27 82 -13 4 4 14 4 23 1 10 -4 13 -2 8 5 -4 7 -4 12 1 12 4
0 13 11 20 25 8 19 8 23 0 18 -7 -4 -6 1 2 10 11 14 11 17 0 17 -12 0 -12 2 0
9 9 6 10 10 2 12 -7 3 -13 14 -14 27 0 12 -5 22 -9 22 -4 0 -8 9 -8 20 0 11
-4 20 -10 20 -5 0 -10 9 -10 21 0 11 -4 17 -10 14 -5 -3 -10 1 -10 9 0 9 -4
16 -10 16 -5 0 -10 6 -10 14 0 8 -9 18 -20 21 -11 4 -18 11 -15 16 4 5 1 9 -5
9 -6 0 -22 11 -36 25 -14 14 -30 23 -35 20 -5 -4 -9 -2 -9 3 0 12 -78 52 -104
52 -12 0 -28 6 -35 13 -11 10 -13 10 -7 0 4 -7 2 -13 -3 -13 -6 0 -11 3 -11 8
0 4 -25 8 -55 8 -30 1 -52 -3 -49 -7z"/>
</g>
</svg>
