<?xml version="1.0" standalone="no"?>
<!DOCTYPE svg PUBLIC "-//W3C//DTD SVG 20010904//EN"
 "http://www.w3.org/TR/2001/REC-SVG-20010904/DTD/svg10.dtd">
<svg version="1.0" xmlns="http://www.w3.org/2000/svg"
 width="512.000000pt" height="512.000000pt" viewBox="0 0 512.000000 512.000000"
 preserveAspectRatio="xMidYMid meet">
<metadata>
Created by potrace 1.11, written by Peter Selinger 2001-2013
</metadata>
<g transform="translate(0.000000,512.000000) scale(0.100000,-0.100000)"
fill="#000000" stroke="none">
<path d="M2340 5103 c-457 -67 -862 -332 -1106 -723 -156 -250 -228 -506 -236
-832 l-1 -78 -106 -1 c-58 -1 -109 -1 -112 -1 -3 1 -26 -5 -51 -13 -94 -28
-171 -94 -216 -185 -23 -47 -27 -68 -27 -140 0 -96 18 -156 65 -215 79 -99
167 -137 320 -137 58 1 112 -1 120 -4 10 -2 16 -18 17 -46 6 -115 42 -276 90
-403 133 -355 378 -640 708 -826 l60 -34 0 -343 0 -342 -680 -1 c-374 0 -691
-3 -705 -5 -164 -30 -304 -134 -379 -281 -47 -94 -54 -135 -56 -320 l-2 -173
2518 0 2519 0 -2 155 c0 86 -6 183 -13 216 -39 188 -211 360 -398 399 -42 8
-245 12 -733 11 -625 0 -674 2 -675 17 -3 53 -4 641 -1 660 3 12 9 22 15 22 6
0 43 19 81 42 349 205 621 566 714 948 29 116 44 207 46 275 l1 30 121 2 c169
3 248 35 330 132 77 92 95 252 41 362 -42 86 -128 161 -212 184 -16 5 -33 9
-37 10 -5 2 -59 3 -121 4 l-114 1 -2 88 c-8 363 -113 675 -319 947 -57 75
-243 260 -303 300 -24 17 -53 38 -63 48 -11 9 -23 17 -27 17 -5 0 -27 13 -51
29 -51 34 -211 111 -231 111 -7 0 -17 3 -21 7 -15 15 -169 58 -281 80 -109 20
-366 24 -485 6z"/>
</g>
</svg>
